<?xml version="1.0" standalone="no"?>
<!DOCTYPE svg PUBLIC "-//W3C//DTD SVG 20010904//EN"
 "http://www.w3.org/TR/2001/REC-SVG-20010904/DTD/svg10.dtd">
<svg version="1.0" xmlns="http://www.w3.org/2000/svg"
 width="256.000000pt" height="256.000000pt" viewBox="0 0 256.000000 256.000000"
 preserveAspectRatio="xMidYMid meet">
<metadata>
Created by potrace 1.11, written by Peter Selinger 2001-2013
</metadata>
<g transform="translate(0.000000,256.000000) scale(0.100000,-0.100000)"
fill="#000000" stroke="none">
<path d="M912 2185 c-17 -14 -34 -34 -37 -45 -3 -10 -19 -23 -35 -28 -53 -19
-64 -50 -56 -160 9 -122 26 -147 26 -36 0 61 5 88 21 119 35 67 59 87 94 80
16 -3 45 -8 63 -12 39 -6 46 -16 30 -42 -16 -25 4 -51 39 -51 21 0 23 -3 14
-14 -15 -18 -69 -37 -75 -27 -7 11 -94 -3 -108 -17 -9 -9 -6 -12 13 -12 l24
-1 -27 -22 c-26 -21 -40 -45 -19 -33 13 8 42 -4 35 -15 -3 -5 1 -9 9 -9 20 0
57 38 57 60 0 10 5 22 10 25 14 9 40 -13 40 -34 0 -26 24 -71 37 -71 6 0 14
-4 17 -9 3 -4 -7 -8 -23 -7 -22 1 -27 5 -24 21 2 11 -2 8 -8 -7 -9 -23 -15
-27 -35 -22 -18 5 -24 2 -24 -10 0 -9 8 -16 19 -16 27 0 36 -19 14 -27 -27
-10 -73 -45 -73 -56 0 -5 10 -6 23 -2 54 16 81 13 60 -9 -16 -16 -12 -45 8
-51 21 -7 21 -7 -2 -31 -12 -13 -31 -24 -41 -24 -27 0 -22 -17 16 -53 27 -25
34 -40 35 -72 0 -22 -2 -48 -5 -57 -7 -25 -48 -23 -109 5 -50 23 -50 23 -100
5 -27 -10 -93 -30 -145 -44 -132 -36 -161 -53 -192 -111 -28 -52 -42 -108 -57
-223 -6 -42 -24 -118 -42 -169 -21 -62 -28 -96 -21 -103 7 -7 14 -1 24 19 13
27 17 28 89 31 83 3 146 -13 163 -41 9 -15 6 -22 -18 -42 -17 -13 -33 -22 -38
-19 -4 3 -18 0 -30 -7 l-22 -12 23 -18 c13 -11 48 -26 77 -35 51 -15 73 -34
38 -34 -21 0 -83 -70 -77 -87 3 -7 -3 -16 -12 -20 -17 -6 -17 -7 1 -20 16 -12
16 -13 1 -13 -9 0 -17 -5 -17 -12 0 -6 -3 -9 -6 -5 -12 12 -64 -21 -88 -56
-14 -20 -22 -38 -18 -40 4 -2 32 -5 62 -6 30 -1 56 -4 59 -6 2 -3 -8 -74 -23
-158 -14 -84 -26 -161 -26 -170 0 -16 41 -17 536 -17 327 0 533 4 529 9 -3 5
-8 102 -11 215 l-6 206 47 0 c61 0 79 11 99 60 14 35 14 43 2 55 -7 8 -16 12
-18 9 -3 -2 -4 16 -3 41 1 25 -2 45 -7 45 -5 0 -8 16 -6 35 1 19 0 37 -3 39
-3 3 -27 -6 -53 -19 -27 -14 -52 -22 -57 -19 -4 2 -16 -7 -25 -21 -9 -14 -25
-25 -35 -25 -11 0 -29 -10 -41 -22 -15 -15 -23 -18 -26 -9 -3 8 -8 9 -17 1
-14 -12 -42 -19 -94 -25 -55 -6 -68 -44 -23 -66 33 -17 38 -35 13 -48 -13 -8
-27 -7 -47 3 -16 8 -40 16 -54 18 -14 2 -27 6 -30 10 -3 4 -15 9 -25 11 -11 1
-24 5 -30 8 -5 4 -21 5 -35 4 -38 -4 -103 31 -124 66 -17 29 -21 31 -55 24
-61 -12 -134 -11 -168 3 -35 15 -44 30 -36 60 5 21 67 34 171 36 l52 1 0 74
c0 40 5 101 11 135 11 56 10 65 -10 104 -12 23 -25 42 -30 42 -12 0 -20 -36
-22 -90 l-1 -45 -10 39 c-14 52 4 116 33 116 14 0 26 -13 41 -46 l20 -46 25
43 c37 66 82 109 114 109 35 0 41 -10 42 -69 1 -33 -8 -65 -26 -102 -29 -60
-89 -125 -106 -115 -12 8 -13 49 -1 86 7 21 8 17 7 -18 0 -23 2 -45 6 -48 10
-10 65 75 82 127 18 54 13 119 -8 119 -20 0 -98 -81 -114 -118 -9 -21 -15 -81
-17 -168 l-3 -135 61 1 c34 1 98 -2 143 -5 49 -4 111 -2 153 5 75 13 86 22
138 116 16 29 47 45 131 68 75 21 105 16 125 -22 22 -40 20 -17 -8 73 -14 44
-32 121 -41 170 -32 171 -81 226 -235 266 -36 9 -95 31 -132 49 -68 32 -68 32
-85 12 -10 -11 -35 -22 -56 -25 -34 -5 -38 -4 -32 11 4 9 8 24 10 32 2 8 4 15
5 15 3 0 9 41 11 84 1 25 7 52 12 58 6 9 5 23 -3 42 -7 17 -9 43 -5 61 4 17 8
54 9 82 2 27 8 53 15 57 18 12 21 48 5 62 -12 10 -12 14 -2 20 11 7 11 9 0 9
-7 0 -10 5 -6 11 3 6 0 15 -7 20 -11 7 -10 9 4 9 11 0 15 4 11 12 -4 6 -3 8 4
5 13 -9 35 -135 35 -207 0 -30 2 -42 4 -26 3 20 7 25 13 16 6 -9 12 -5 24 18
21 41 20 79 -1 91 -14 7 -18 23 -19 73 0 81 -26 131 -93 181 -64 47 -92 58
-162 63 -50 4 -61 1 -87 -21z m252 -261 c3 -8 2 -12 -4 -9 -6 3 -10 10 -10 16
0 14 7 11 14 -7z m110 -69 c-4 -8 -8 -15 -10 -15 -2 0 -4 7 -4 15 0 8 4 15 10
15 5 0 7 -7 4 -15z m-221 -122 c-13 -2 -33 -2 -45 0 -13 2 -3 4 22 4 25 0 35
-2 23 -4z m108 -116 c-10 -9 -11 -8 -5 6 3 10 9 15 12 12 3 -3 0 -11 -7 -18z
m-35 -123 c-4 -14 -11 -22 -17 -18 -8 4 -7 10 0 17 15 15 14 30 -1 21 -8 -5
-7 -1 2 10 17 22 25 7 16 -30z m100 -596 c4 -6 3 -8 -4 -4 -10 6 -42 -29 -42
-46 0 -8 34 -3 51 8 8 4 7 0 -1 -15 -6 -13 -16 -19 -23 -14 -16 10 -37 13 -35
5 1 -4 -6 -24 -15 -44 -10 -21 -17 -44 -17 -53 0 -8 -5 -15 -11 -15 -22 0 3
79 48 153 24 38 37 45 49 25z m254 -7 c0 -5 -7 -14 -15 -21 -16 -14 -18 -10
-9 14 6 17 24 22 24 7z m-453 -105 c-12 -25 -26 -40 -31 -35 -5 5 2 23 18 44
36 47 40 44 13 -9z m45 25 c-7 -4 -14 -20 -16 -34 -4 -38 -16 -46 -16 -12 0
28 28 71 39 60 3 -4 0 -10 -7 -14z m41 -21 c-14 -21 -30 -37 -35 -34 -9 6 39
74 53 74 4 0 -4 -18 -18 -40z m77 -14 c-11 -18 -17 -36 -13 -39 3 -4 1 -7 -5
-7 -16 0 -15 16 4 56 9 19 20 31 25 28 5 -3 1 -20 -11 -38z"/>
<path d="M930 1806 c-6 -9 -10 -21 -8 -28 3 -8 9 -4 17 10 15 28 9 39 -9 18z"/>
<path d="M958 868 c-3 -24 -1 -50 3 -58 5 -9 9 7 9 43 0 67 -6 75 -12 15z"/>
<path d="M1591 838 c-1 -18 -10 -32 -28 -43 -16 -9 -36 -28 -46 -41 -17 -23
-17 -24 0 -24 10 0 24 9 31 20 6 11 17 17 24 15 20 -8 40 47 29 76 l-10 24 0
-27z"/>
<path d="M1481 774 c-25 -24 -40 -44 -35 -44 5 0 30 20 54 45 24 25 40 45 35
44 -6 0 -30 -21 -54 -45z"/>
</g>
</svg>
